<?xml version="1.0" encoding="UTF-8"?>
<!DOCTYPE svg PUBLIC "-//W3C//DTD SVG 1.1//EN" "http://www.w3.org/Graphics/SVG/1.1/DTD/svg11.dtd">
<svg xmlns="http://www.w3.org/2000/svg" version="1.1" width="606px" height="132px" style="shape-rendering:geometricPrecision; text-rendering:geometricPrecision; image-rendering:optimizeQuality; fill-rule:evenodd; clip-rule:evenodd" xmlns:xlink="http://www.w3.org/1999/xlink">
<g><path style="opacity:0.938" fill="#fefffe" d="M 133.5,29.5 C 150.107,29.3166 165.44,33.4833 179.5,42C 176.92,45.1584 174.587,48.4918 172.5,52C 165.49,49.1898 158.157,46.8564 150.5,45C 133.168,41.8729 116.835,44.5396 101.5,53C 89.8871,61.1481 89.8871,69.4814 101.5,78C 124.12,90.8934 146.454,90.5601 168.5,77C 169.833,75.3333 171.167,73.6667 172.5,72C 161.839,71.5002 151.172,71.3335 140.5,71.5C 140.5,67.1667 140.5,62.8333 140.5,58.5C 156.167,58.5 171.833,58.5 187.5,58.5C 188.743,76.8351 180.743,89.3351 163.5,96C 141.794,102.745 120.461,101.745 99.5,93C 92.4273,89.2622 86.5939,84.0956 82,77.5C 76.5856,63.073 80.0856,51.2397 92.5,42C 105.196,34.2651 118.862,30.0985 133.5,29.5 Z"/></g>
<g><path style="opacity:0.946" fill="#fefffe" d="M 189.5,29.5 C 222.845,24.333 234.345,37.6663 224,69.5C 222,71.5688 220.167,73.7355 218.5,76C 220.951,83.359 223.784,90.5256 227,97.5C 231.823,74.8853 236.323,52.2186 240.5,29.5C 245.5,29.5 250.5,29.5 255.5,29.5C 259.988,52.9403 264.988,76.2737 270.5,99.5C 265.869,100.662 261.202,100.828 256.5,100C 255.058,95.9587 254.058,91.792 253.5,87.5C 250.15,87.335 246.817,87.5017 243.5,88C 242.44,91.7924 241.44,95.6257 240.5,99.5C 231.167,100.833 221.833,100.833 212.5,99.5C 209.813,91.5974 206.646,83.9307 203,76.5C 202.5,84.4931 202.334,92.4931 202.5,100.5C 198.167,100.5 193.833,100.5 189.5,100.5C 189.5,76.8333 189.5,53.1667 189.5,29.5 Z M 202.5,43.5 C 210.085,42.2559 213.751,45.4226 213.5,53C 213.865,60.8031 210.198,64.3031 202.5,63.5C 202.5,56.8333 202.5,50.1667 202.5,43.5 Z M 247.5,63.5 C 248.68,66.5208 249.68,69.6874 250.5,73C 249.207,73.49 247.873,73.6567 246.5,73.5C 246.833,70.1667 247.167,66.8333 247.5,63.5 Z"/></g>
<g><path style="opacity:0.939" fill="#fefffe" d="M 273.5,29.5 C 278.214,29.1734 282.88,29.5067 287.5,30.5C 291.666,44.4943 295.832,58.4943 300,72.5C 304.307,58.2718 308.14,43.9384 311.5,29.5C 316.167,29.5 320.833,29.5 325.5,29.5C 325.5,53.1667 325.5,76.8333 325.5,100.5C 320.833,100.5 316.167,100.5 311.5,100.5C 311.666,95.1563 311.499,89.8229 311,84.5C 309.882,89.808 308.382,94.9747 306.5,100C 302.167,100.667 297.833,100.667 293.5,100C 291.474,94.2551 289.641,88.4218 288,82.5C 287.501,88.4908 287.334,94.4908 287.5,100.5C 282.833,100.5 278.167,100.5 273.5,100.5C 273.5,76.8333 273.5,53.1667 273.5,29.5 Z"/></g>
<g><path style="opacity:0.932" fill="#fefffe" d="M 329.5,29.5 C 362.73,24.3371 374.23,37.6704 364,69.5C 358.57,75.6994 351.737,78.0328 343.5,76.5C 343.5,84.5 343.5,92.5 343.5,100.5C 338.833,100.5 334.167,100.5 329.5,100.5C 329.5,76.8333 329.5,53.1667 329.5,29.5 Z M 343.5,43.5 C 350.912,42.4121 354.245,45.5788 353.5,53C 354.02,60.3116 350.687,63.8116 343.5,63.5C 343.5,56.8333 343.5,50.1667 343.5,43.5 Z"/></g>
<g><path style="opacity:0.926" fill="#fefffe" d="M 488.5,87.5 C 488.586,88.4959 488.252,89.3292 487.5,90C 470.041,99.5775 451.374,102.911 431.5,100C 421.456,98.6521 412.123,95.3188 403.5,90C 388.96,80.7161 385.126,68.2161 392,52.5C 401.986,39.7526 415.152,32.5859 431.5,31C 451.655,27.996 470.488,31.496 488,41.5C 491.907,34.1049 498.074,30.1049 506.5,29.5C 519.267,31.2673 525.6,38.6007 525.5,51.5C 520.833,51.5 516.167,51.5 511.5,51.5C 511.677,44.0095 508.51,42.0095 502,45.5C 501.14,49.9521 502.64,53.4521 506.5,56C 517.481,61.3046 523.814,69.9713 525.5,82C 521.934,99.7831 511.934,104.783 495.5,97C 492.535,94.2099 490.202,91.0433 488.5,87.5 Z M 488.5,87.5 C 485.479,84.6336 482.979,81.3003 481,77.5C 457.652,90.6132 434.152,90.7799 410.5,78C 401.587,72.0277 400.254,64.6943 406.5,56C 430.861,40.446 455.695,39.6126 481,53.5C 482.752,50.328 484.752,47.328 487,44.5C 486.656,50.7959 488.323,56.4626 492,61.5C 497.815,66.7382 503.815,71.7382 510,76.5C 512.647,81.1146 511.814,84.7812 507.5,87.5C 502.643,85.4572 500.643,81.7905 501.5,76.5C 496.833,76.5 492.167,76.5 487.5,76.5C 487.552,80.1981 487.886,83.8648 488.5,87.5 Z"/></g>
<g><path style="opacity:0.929" fill="#fefffe" d="M 370.5,30.5 C 375.167,30.5 379.833,30.5 384.5,30.5C 384.5,53.8333 384.5,77.1667 384.5,100.5C 379.833,100.5 375.167,100.5 370.5,100.5C 370.5,77.1667 370.5,53.8333 370.5,30.5 Z"/></g>
</svg>
