<?xml version="1.0" encoding="UTF-8"?>
<!DOCTYPE svg PUBLIC "-//W3C//DTD SVG 1.1//EN" "http://www.w3.org/Graphics/SVG/1.1/DTD/svg11.dtd">
            <svg xmlns="http://www.w3.org/2000/svg" version="1.1" width="180px" height="55px" style="shape-rendering:geometricPrecision; text-rendering:geometricPrecision; image-rendering:optimizeQuality; fill-rule:evenodd; clip-rule:evenodd" xmlns:xlink="http://www.w3.org/1999/xlink">
                <g><path style="opacity:0.81" fill="#fefffe" d="M 23.5,15.5 C 26.8394,15.8897 30.1727,16.3897 33.5,17C 35.9969,17.4117 37.9969,18.5784 39.5,20.5C 39.1667,22.1667 38.1667,23.1667 36.5,23.5C 29.1008,20.723 21.7674,20.8896 14.5,24C 10.5,26.6667 10.5,29.3333 14.5,32C 22.0617,35.5833 29.395,35.25 36.5,31C 33.1832,30.5017 29.8499,30.335 26.5,30.5C 26.5,28.8333 26.5,27.1667 26.5,25.5C 31.8333,25.5 37.1667,25.5 42.5,25.5C 41.7028,36.1092 35.8695,40.7759 25,39.5C 17.3531,40.2932 11.3531,37.6265 7,31.5C 5.45069,24.7662 7.95069,20.2662 14.5,18C 17.6282,17.1588 20.6282,16.3254 23.5,15.5 Z"/></g>
                <g><path style="opacity:0.848" fill="#fefffe" d="M 45.5,15.5 C 57.9939,15.158 61.3272,20.4913 55.5,31.5C 56.4067,34.0567 57.4067,36.5567 58.5,39C 54.2556,40.2625 51.7556,38.7625 51,34.5C 50.5065,36.1341 50.3398,37.8008 50.5,39.5C 48.8333,39.5 47.1667,39.5 45.5,39.5C 45.5,31.5 45.5,23.5 45.5,15.5 Z M 50.5,20.5 C 53.8392,22.1474 54.1726,24.1474 51.5,26.5C 50.5344,24.604 50.2011,22.604 50.5,20.5 Z"/></g>
                <g><path style="opacity:0.846" fill="#fefffe" d="M 64.5,15.5 C 66.4672,15.2606 68.3005,15.5939 70,16.5C 71.8239,24.1191 73.3239,31.7858 74.5,39.5C 72.8333,39.5 71.1667,39.5 69.5,39.5C 69.8333,36.5 68.5,35.1667 65.5,35.5C 65.5,36.8333 65.5,38.1667 65.5,39.5C 63.4727,39.6621 61.4727,39.4955 59.5,39C 61.7378,31.3126 63.4045,23.4792 64.5,15.5 Z"/></g>
                <g><path style="opacity:0.839" fill="#fefffe" d="M 78.5,15.5 C 80.1439,15.2865 81.6439,15.6198 83,16.5C 84.3353,20.5115 85.6686,24.5115 87,28.5C 88.3269,24.1912 89.4935,19.8579 90.5,15.5C 92.1667,15.5 93.8333,15.5 95.5,15.5C 95.5,23.5 95.5,31.5 95.5,39.5C 93.2341,39.8588 91.4007,39.1922 90,37.5C 89.3261,38.5784 88.3261,39.2451 87,39.5C 83.9843,39.0608 80.8176,39.0608 77.5,39.5C 77.1995,31.4144 77.5328,23.4144 78.5,15.5 Z"/></g>
                <g><path style="opacity:0.825" fill="#fefffe" d="M 98.5,15.5 C 111.408,14.2317 115.074,19.3984 109.5,31C 107.527,31.4955 105.527,31.6621 103.5,31.5C 103.5,34.1667 103.5,36.8333 103.5,39.5C 101.833,39.5 100.167,39.5 98.5,39.5C 98.5,31.5 98.5,23.5 98.5,15.5 Z M 103.5,20.5 C 104.496,20.4142 105.329,20.7476 106,21.5C 106.494,23.1341 106.66,24.8008 106.5,26.5C 105.5,26.5 104.5,26.5 103.5,26.5C 103.5,24.5 103.5,22.5 103.5,20.5 Z"/></g>
                <g><path style="opacity:0.826" fill="#fefffe" d="M 115.5,15.5 C 117.144,15.2865 118.644,15.6198 120,16.5C 120.5,24.1594 120.666,31.8261 120.5,39.5C 118.833,39.5 117.167,39.5 115.5,39.5C 115.5,31.5 115.5,23.5 115.5,15.5 Z"/></g>
                <g><path style="opacity:0.795" fill="#fefffe" d="M 140.5,15.5 C 145.706,15.8117 150.706,16.9784 155.5,19C 156.113,24.6948 154.113,25.6948 149.5,22C 142.868,20.8289 136.535,21.6622 130.5,24.5C 127.574,28.4804 128.574,31.3137 133.5,33C 140.583,35.3399 147.417,34.8399 154,31.5C 157.68,35.8831 156.513,38.3831 150.5,39C 145.167,39.6667 139.833,39.6667 134.5,39C 124.932,37.0194 121.765,31.5194 125,22.5C 129.518,18.5035 134.684,16.1702 140.5,15.5 Z"/></g>
                <g><path style="opacity:0.809" fill="#fefffe" d="M 163.5,15.5 C 168.543,15.8766 171.21,18.5433 171.5,23.5C 168.675,23.8384 166.508,22.8384 165,20.5C 164.308,21.0253 163.808,21.6919 163.5,22.5C 166.494,24.6617 168.994,27.3283 171,30.5C 171.997,37.8329 168.83,40.6662 161.5,39C 159.253,37.005 158.253,34.505 158.5,31.5C 161.408,31.2623 163.742,32.2623 165.5,34.5C 165.833,34.1667 166.167,33.8333 166.5,33.5C 164.211,30.7088 161.711,28.0421 159,25.5C 157.598,20.6477 159.098,17.3143 163.5,15.5 Z"/></g>
            </svg>
