<svg xmlns="http://www.w3.org/2000/svg" width="30.229" height="30.229" viewBox="0 0 30.229 30.229">
    <path id="Instagram-Add-Icon-09i3c" d="M9.2,29.229a9.207,9.207,0,0,1-9.2-9.2V9.2A9.207,9.207,0,0,1,9.2,0h10.83a9.208,9.208,0,0,1,9.2,9.2V20.031a9.209,9.209,0,0,1-9.2,9.2ZM1.216,9.2V20.031A7.99,7.99,0,0,0,9.2,28.011h10.83a7.989,7.989,0,0,0,7.984-7.979V9.2a7.989,7.989,0,0,0-7.984-7.979H9.2A7.99,7.99,0,0,0,1.216,9.2ZM14,21.315V15.226H7.916V14H14V7.915h1.219V14h6.09v1.221h-6.09v6.089Z" transform="translate(0.5 0.5)" stroke="rgba(0,0,0,0)" stroke-miterlimit="10" stroke-width="1"/>
</svg>
